<svg viewBox="0 0 1024 1024" version="1.1" xmlns="http://www.w3.org/2000/svg"><path d="M836.224 106.666667h-490.666667a85.589333 85.589333 0 0 0-85.333333 85.333333V256h-64a85.589333 85.589333 0 0 0-85.333333 85.333333v490.666667a85.589333 85.589333 0 0 0 85.333333 85.333333h490.666667a85.589333 85.589333 0 0 0 85.333333-85.333333V768h64a85.589333 85.589333 0 0 0 85.333333-85.333333V192a85.589333 85.589333 0 0 0-85.333333-85.333333z m-132.266667 725.333333a20.138667 20.138667 0 0 1-21.333333 21.333333h-490.666667a20.138667 20.138667 0 0 1-21.333333-21.333333V341.333333a20.138667 20.138667 0 0 1 21.333333-21.333333h494.933334a20.138667 20.138667 0 0 1 21.333333 21.333333v490.666667z m153.6-149.333333a20.138667 20.138667 0 0 1-21.333333 21.333333h-64V341.333333a85.589333 85.589333 0 0 0-85.333333-85.333333h-362.666667V192a20.138667 20.138667 0 0 1 21.333333-21.333333h490.666667a20.138667 20.138667 0 0 1 21.333333 21.333333z"></path></svg>
